<svg width="77" height="82" viewBox="0 0 77 82" fill="none" xmlns="http://www.w3.org/2000/svg">
<path d="M42.3048 50.4729H20.7684C18.4805 50.4688 16.2159 50.8507 14.1145 51.595C12.0131 52.3393 10.1197 53.4302 8.5511 54.8004C6.98255 56.1705 5.77225 57.7907 4.99503 59.5608C4.2178 61.3309 3.89016 63.2134 4.03234 65.0918C4.17453 66.9702 4.78353 68.8047 5.82171 70.4818C6.85988 72.159 8.30516 73.6431 10.0682 74.8426C11.8313 76.0421 13.8747 76.9314 16.0721 77.4555C18.2695 77.9796 20.5742 78.1275 22.8438 77.8899L25.7122 77.5934C30.291 77.1209 34.503 75.2904 37.5578 72.4452C40.6127 69.6 42.3006 65.9356 42.3048 62.1395V22.4713C42.3048 15.6128 42.3048 12.1857 44.7458 9.81765C47.1868 7.44959 51.2963 6.88193 59.5154 5.75086L71.6586 4.08601C72.359 3.99281 72.7091 3.94198 72.8945 4.11143C73.0799 4.28088 72.9975 4.56047 72.8276 5.12813L68.2185 20.2981C68.1413 20.5523 68.1001 20.6794 67.9919 20.7641C67.8838 20.8488 67.7345 20.8743 67.4203 20.9251L42.3048 25.0554" fill="#332721"/>
<path d="M42.3048 50.4729H20.7684C18.4805 50.4688 16.2159 50.8507 14.1145 51.595C12.0131 52.3393 10.1197 53.4302 8.5511 54.8004C6.98255 56.1705 5.77225 57.7907 4.99503 59.5608C4.2178 61.3309 3.89016 63.2134 4.03234 65.0918C4.17453 66.9702 4.78353 68.8047 5.82171 70.4818C6.85988 72.159 8.30516 73.6431 10.0682 74.8426C11.8313 76.0421 13.8747 76.9314 16.0721 77.4555C18.2695 77.9796 20.5742 78.1275 22.8438 77.8899L25.7122 77.5934C30.291 77.1209 34.503 75.2904 37.5578 72.4452C40.6127 69.6 42.3006 65.9356 42.3048 62.1395V22.4713C42.3048 15.6128 42.3048 12.1857 44.7458 9.81765C47.1868 7.44959 51.2963 6.88193 59.5154 5.75086L71.6586 4.08601C72.359 3.99281 72.7091 3.94198 72.8945 4.11143C73.0799 4.28088 72.9975 4.56047 72.8276 5.12813L68.2185 20.2981C68.1413 20.5523 68.1001 20.6794 67.9919 20.7641C67.8838 20.8488 67.7345 20.8743 67.4203 20.9251L42.3048 25.0554" stroke="#332721" stroke-width="8"/>
</svg>
