<svg width="63" height="100" viewBox="0 0 63 100" fill="none" xmlns="http://www.w3.org/2000/svg">
<path d="M34.5156 0.5L62.2949 28.5L41.3145 49.6475L40.9648 50L41.3145 50.3525L62.2949 71.499L34.5156 99.5H30.2637V60.7861L29.4092 61.6475L6.94434 84.2891L0.704102 77.999L28.1348 50.3525L28.4834 50L28.1348 49.6475L0.704102 22L6.94434 15.71L29.4092 38.3525L30.2637 39.2139V0.5H34.5156ZM39.1846 81.9414L40.0352 81.1064L49.4609 71.8564L49.8193 71.5049L49.4648 71.1475L40.04 61.6475L39.1846 60.7861V81.9414ZM39.1846 39.2139L40.04 38.3525L49.4648 28.8525L49.8193 28.4951L49.4609 28.1436L40.0352 18.8936L39.1846 18.0586V39.2139Z" fill="#332721" stroke="#332721"/>
</svg>
