<svg width="75" height="105" viewBox="0 0 75 105" fill="none" xmlns="http://www.w3.org/2000/svg">
<path d="M64.2861 0.5C67.1018 0.500099 69.4996 1.47824 71.5059 3.44434C73.5115 5.41006 74.5033 7.75284 74.5 10.499V94.5C74.5 97.2507 73.5074 99.5957 71.5049 101.562C69.5026 103.527 67.1055 104.503 64.2861 104.5H10.7139C7.89802 104.5 5.50243 103.524 3.5 101.562C1.6228 99.7219 0.632004 97.5454 0.512695 95.0107L0.5 94.499V10.5C0.5 7.74963 1.49426 5.40662 3.5 3.44434C5.38108 1.6041 7.60437 0.629104 10.1924 0.511719L10.7148 0.5H64.2861ZM10.2139 95H64.7861V10H10.2139V95ZM37.5 47.75C43.2624 47.75 48.1815 49.7549 52.2842 53.7754C56.3865 57.7957 58.4287 62.612 58.4287 68.25C58.4287 73.888 56.3865 78.7043 52.2842 82.7246C48.1815 86.7451 43.2624 88.75 37.5 88.75C31.7376 88.75 26.8185 86.7451 22.7158 82.7246C18.6135 78.7043 16.5713 73.888 16.5713 68.25C16.5713 62.612 18.6135 57.7957 22.7158 53.7754C26.8185 49.7549 31.7376 47.75 37.5 47.75ZM37.499 57.25C34.43 57.2573 31.7835 58.337 29.5869 60.4785C27.3884 62.622 26.2824 65.2225 26.2861 68.251C26.29 71.2783 27.3954 73.8787 29.5859 76.0254C31.7757 78.1713 34.4222 79.2486 37.498 79.249V79.25L37.499 79.249L37.5 79.25V79.249C40.5912 79.2631 43.2417 78.1857 45.4219 76.0234C47.5996 73.8637 48.7026 71.2647 48.7139 68.252C48.7251 65.2361 47.6207 62.6363 45.4199 60.4795C43.2195 58.3231 40.57 57.2427 37.499 57.25ZM37.499 16.25C40.3232 16.2567 42.7209 17.2355 44.7197 19.1943C46.7181 21.1529 47.7105 23.4962 47.7139 26.251C47.7172 29.0047 46.7251 31.3486 44.7197 33.3105C42.7135 35.2733 40.3161 36.25 37.5 36.25H37.498C34.6989 36.2634 32.3035 35.2884 30.2861 33.3115C28.2689 31.3346 27.276 28.9898 27.2861 26.252C27.2963 23.511 28.2902 21.1661 30.2871 19.1924C32.2819 17.2208 34.6767 16.2433 37.499 16.25Z" fill="#F5F5F5" stroke="#F5F5F5"/>
</svg>
