<svg width="133" height="46" viewBox="0 0 133 46" fill="none" xmlns="http://www.w3.org/2000/svg">
<path d="M24.776 32.32C24.52 32.688 24.336 33.064 24.224 33.448C24.128 33.832 24.08 34.328 24.08 34.936V41.632C24.08 41.968 24.152 42.248 24.296 42.472L24.512 42.76L24.296 43H21.8L16.472 33.808V39.856C16.472 40.496 16.52 41.008 16.616 41.392C16.728 41.76 16.912 42.12 17.168 42.472L17.384 42.76L17.168 43H14.528L14.36 42.568C14.776 42.456 15.064 42.352 15.224 42.256C15.4 42.16 15.52 42.024 15.584 41.848C15.648 41.672 15.68 41.392 15.68 41.008V34.672C15.68 33.968 15.616 33.456 15.488 33.136C15.36 32.816 15.08 32.472 14.648 32.104L14.84 31.792H17.96L23.312 41.056V33.784C23.312 33.304 23.208 32.968 23 32.776C22.808 32.584 22.4 32.4 21.776 32.224L21.92 31.792H24.776L24.992 32.056L24.776 32.32ZM26.3176 39.136C26.3176 37.872 26.6776 36.872 27.3976 36.136C28.1336 35.4 29.1256 35.032 30.3736 35.032C31.6216 35.032 32.6136 35.408 33.3496 36.16C34.0856 36.896 34.4536 37.888 34.4536 39.136C34.4536 40.384 34.0856 41.376 33.3496 42.112C32.6136 42.848 31.6216 43.216 30.3736 43.216C29.1256 43.216 28.1336 42.848 27.3976 42.112C26.6776 41.376 26.3176 40.384 26.3176 39.136ZM32.0296 39.184C32.0296 38.112 31.8776 37.24 31.5736 36.568C31.2696 35.88 30.8856 35.536 30.4216 35.536C29.9096 35.536 29.4936 35.872 29.1736 36.544C28.8536 37.2 28.6936 38.064 28.6936 39.136C28.6936 40.224 28.8376 41.088 29.1256 41.728C29.4296 42.368 29.8296 42.688 30.3256 42.688C30.8216 42.688 31.2296 42.368 31.5496 41.728C31.8696 41.072 32.0296 40.224 32.0296 39.184ZM40.784 35.032C41.296 35.032 41.712 35.184 42.032 35.488C42.352 35.776 42.512 36.152 42.512 36.616C42.512 37.048 42.384 37.4 42.128 37.672C41.872 37.928 41.536 38.056 41.12 38.056C40.8 38.056 40.504 37.992 40.232 37.864C40.52 37.624 40.664 37.264 40.664 36.784C40.664 36.56 40.616 36.384 40.52 36.256C40.424 36.128 40.296 36.064 40.136 36.064C39.752 36.064 39.432 36.456 39.176 37.24C38.92 38.008 38.792 38.968 38.792 40.12C38.792 40.712 38.824 41.184 38.888 41.536C38.968 41.888 39.096 42.216 39.272 42.52L39.464 42.76L39.272 43H35.792L35.648 42.592L35.984 42.52C36.24 42.456 36.408 42.36 36.488 42.232C36.568 42.088 36.608 41.816 36.608 41.416V36.736C36.608 36.432 36.504 36.28 36.296 36.28H35.552L35.456 36.016C35.76 35.744 36.136 35.52 36.584 35.344C37.048 35.168 37.504 35.08 37.952 35.08C38.16 35.08 38.328 35.128 38.456 35.224C38.584 35.32 38.648 35.448 38.648 35.608V37.36H38.72C39.056 35.808 39.744 35.032 40.784 35.032ZM52.3372 42.232C51.7452 42.888 51.0492 43.216 50.2492 43.216C49.7532 43.216 49.3852 43.112 49.1452 42.904C48.9052 42.68 48.7452 42.32 48.6652 41.824C48.2492 42.304 47.8172 42.656 47.3692 42.88C46.9212 43.104 46.4252 43.216 45.8812 43.216C45.0812 43.216 44.4252 42.864 43.9132 42.16C43.4172 41.456 43.1692 40.544 43.1692 39.424C43.1692 38.08 43.5212 37.016 44.2252 36.232C44.9292 35.432 45.8892 35.032 47.1052 35.032C47.6652 35.032 48.1772 35.16 48.6412 35.416V32.752C48.6412 32.528 48.5372 32.416 48.3292 32.416H47.5132L47.4172 32.176C47.7372 31.888 48.1452 31.664 48.6412 31.504C49.1372 31.328 49.6252 31.24 50.1052 31.24C50.3132 31.24 50.4812 31.288 50.6092 31.384C50.7372 31.464 50.8012 31.584 50.8012 31.744V41.632C50.8012 42.112 50.9532 42.352 51.2572 42.352C51.5612 42.352 51.8572 42.232 52.1452 41.992L52.3372 42.232ZM47.1292 42.064C47.7372 42.064 48.2412 41.728 48.6412 41.056V35.896C48.3212 35.736 47.9692 35.656 47.5852 35.656C46.2412 35.656 45.5692 36.816 45.5692 39.136C45.5692 40.08 45.6972 40.808 45.9532 41.32C46.2252 41.816 46.6172 42.064 47.1292 42.064ZM55.9901 41.632C55.9901 42.112 56.1421 42.352 56.4461 42.352C56.7501 42.352 57.0461 42.232 57.3341 41.992L57.5261 42.232C56.9341 42.888 56.2381 43.216 55.4381 43.216C54.8621 43.216 54.4461 43.072 54.1901 42.784C53.9341 42.48 53.8061 41.992 53.8061 41.32V36.568C53.8061 36.344 53.7021 36.232 53.4941 36.232H52.7501L52.6781 35.968C52.9981 35.696 53.3981 35.472 53.8781 35.296C54.3581 35.12 54.8381 35.032 55.3181 35.032C55.5101 35.032 55.6701 35.08 55.7981 35.176C55.9261 35.272 55.9901 35.4 55.9901 35.56V41.632ZM53.5661 32.728C53.5661 32.44 53.7261 32.12 54.0461 31.768C54.3661 31.416 54.6621 31.24 54.9341 31.24C55.2221 31.24 55.5261 31.416 55.8461 31.768C56.1821 32.12 56.3501 32.44 56.3501 32.728C56.3501 33.032 56.1821 33.36 55.8461 33.712C55.5261 34.048 55.2221 34.216 54.9341 34.216C54.6621 34.216 54.3661 34.048 54.0461 33.712C53.7261 33.36 53.5661 33.032 53.5661 32.728ZM65.132 37.144C65.132 37.672 64.972 38.088 64.652 38.392C64.332 38.696 63.94 38.848 63.476 38.848C63.108 38.848 62.772 38.752 62.468 38.56C62.82 38.24 62.996 37.792 62.996 37.216C62.996 36.752 62.9 36.376 62.708 36.088C62.516 35.784 62.236 35.632 61.868 35.632C61.452 35.632 61.108 35.96 60.836 36.616C60.58 37.256 60.452 38.096 60.452 39.136C60.452 40.128 60.636 40.928 61.004 41.536C61.388 42.128 61.924 42.424 62.612 42.424C63.092 42.424 63.5 42.336 63.836 42.16C64.188 41.984 64.516 41.728 64.82 41.392L65.108 41.584C64.772 42.064 64.332 42.456 63.788 42.76C63.244 43.064 62.612 43.216 61.892 43.216C60.772 43.216 59.852 42.84 59.132 42.088C58.412 41.336 58.052 40.368 58.052 39.184C58.052 37.92 58.428 36.912 59.18 36.16C59.932 35.408 60.932 35.032 62.18 35.032C63.06 35.032 63.772 35.232 64.316 35.632C64.86 36.016 65.132 36.52 65.132 37.144ZM72.5218 36.664C72.5218 37.064 72.6738 37.392 72.9778 37.648C73.2978 37.888 73.7778 38.16 74.4178 38.464C74.9458 38.72 75.3538 38.944 75.6418 39.136C75.9298 39.312 76.1778 39.552 76.3858 39.856C76.6098 40.16 76.7218 40.52 76.7218 40.936C76.7218 41.624 76.3938 42.176 75.7378 42.592C75.0978 43.008 74.2338 43.216 73.1458 43.216C72.3298 43.216 71.6578 43.072 71.1298 42.784C70.6018 42.48 70.3378 42.088 70.3378 41.608C70.3378 41.288 70.4578 41.024 70.6978 40.816C70.9378 40.592 71.2338 40.48 71.5858 40.48C71.8578 40.48 72.1298 40.536 72.4018 40.648C72.1298 40.856 71.9938 41.192 71.9938 41.656C71.9938 41.976 72.1058 42.224 72.3298 42.4C72.5538 42.576 72.8258 42.664 73.1458 42.664C73.5138 42.664 73.8258 42.568 74.0818 42.376C74.3538 42.184 74.4898 41.912 74.4898 41.56C74.4898 41.224 74.3538 40.96 74.0818 40.768C73.8258 40.56 73.4178 40.32 72.8578 40.048C72.3458 39.808 71.9298 39.592 71.6098 39.4C71.3058 39.192 71.0418 38.92 70.8178 38.584C70.5938 38.248 70.4818 37.84 70.4818 37.36C70.4818 36.64 70.7858 36.072 71.3938 35.656C72.0018 35.24 72.7698 35.032 73.6978 35.032C74.5138 35.032 75.1778 35.184 75.6898 35.488C76.2178 35.792 76.4818 36.184 76.4818 36.664C76.4818 37.032 76.3698 37.304 76.1458 37.48C75.9218 37.656 75.6338 37.744 75.2818 37.744C74.9458 37.744 74.6498 37.672 74.3938 37.528C74.6818 37.256 74.8258 36.912 74.8258 36.496C74.8258 36.224 74.7218 36.008 74.5138 35.848C74.3058 35.672 74.0338 35.584 73.6978 35.584C73.3298 35.584 73.0418 35.688 72.8338 35.896C72.6258 36.104 72.5218 36.36 72.5218 36.664ZM77.9973 39.136C77.9973 37.872 78.3573 36.872 79.0773 36.136C79.8133 35.4 80.8053 35.032 82.0533 35.032C83.3013 35.032 84.2933 35.408 85.0293 36.16C85.7653 36.896 86.1333 37.888 86.1333 39.136C86.1333 40.384 85.7653 41.376 85.0293 42.112C84.2933 42.848 83.3013 43.216 82.0533 43.216C80.8053 43.216 79.8133 42.848 79.0773 42.112C78.3573 41.376 77.9973 40.384 77.9973 39.136ZM83.7093 39.184C83.7093 38.112 83.5573 37.24 83.2533 36.568C82.9493 35.88 82.5653 35.536 82.1013 35.536C81.5893 35.536 81.1733 35.872 80.8533 36.544C80.5333 37.2 80.3733 38.064 80.3733 39.136C80.3733 40.224 80.5173 41.088 80.8053 41.728C81.1093 42.368 81.5093 42.688 82.0053 42.688C82.5013 42.688 82.9093 42.368 83.2293 41.728C83.5493 41.072 83.7093 40.224 83.7093 39.184ZM93.1117 40.816C92.8877 41.52 92.4957 42.096 91.9357 42.544C91.3917 42.992 90.8077 43.216 90.1837 43.216C89.4797 43.216 88.9597 42.992 88.6237 42.544C88.2877 42.096 88.1197 41.408 88.1197 40.48V36.568C88.1197 36.344 88.0157 36.232 87.8077 36.232H87.0637L86.9917 35.968C87.3117 35.696 87.7117 35.472 88.1917 35.296C88.6717 35.12 89.1437 35.032 89.6077 35.032C89.8157 35.032 89.9757 35.08 90.0877 35.176C90.2157 35.272 90.2797 35.4 90.2797 35.56V40.36C90.2797 40.904 90.3597 41.328 90.5197 41.632C90.6797 41.92 90.9037 42.064 91.1917 42.064C91.7837 42.064 92.2557 41.704 92.6077 40.984C92.9757 40.248 93.1597 39.296 93.1597 38.128C93.1597 37.504 93.1117 37.024 93.0157 36.688C92.9357 36.336 92.7837 36.032 92.5597 35.776L92.3437 35.512L92.5357 35.296L95.2957 35.08V41.632C95.2957 42.112 95.4397 42.352 95.7277 42.352C96.0317 42.352 96.3277 42.232 96.6157 41.992L96.8077 42.232C96.2477 42.888 95.5517 43.216 94.7197 43.216C94.1117 43.216 93.6877 43.04 93.4477 42.688C93.2237 42.336 93.1117 41.712 93.1117 40.816ZM105.873 41.632C105.873 42.112 106.025 42.352 106.329 42.352C106.633 42.352 106.929 42.232 107.217 41.992L107.409 42.232C106.817 42.888 106.121 43.216 105.321 43.216C104.745 43.216 104.329 43.072 104.073 42.784C103.833 42.48 103.713 41.992 103.713 41.32V37.648C103.713 36.72 103.417 36.256 102.825 36.256C102.249 36.256 101.777 36.648 101.409 37.432C101.057 38.216 100.881 39.24 100.881 40.504C100.881 40.984 100.921 41.376 101.001 41.68C101.081 41.968 101.209 42.248 101.385 42.52L101.577 42.76L101.385 43H97.9048L97.7607 42.592L98.0968 42.52C98.3528 42.456 98.5208 42.36 98.6008 42.232C98.6808 42.088 98.7208 41.816 98.7208 41.416V36.736C98.7208 36.432 98.6168 36.28 98.4088 36.28H97.6408L97.5688 36.016C97.8888 35.744 98.2888 35.52 98.7688 35.344C99.2488 35.168 99.7288 35.08 100.209 35.08C100.417 35.08 100.577 35.128 100.689 35.224C100.817 35.32 100.881 35.448 100.881 35.608V37.672C101.105 36.92 101.505 36.296 102.081 35.8C102.657 35.288 103.265 35.032 103.905 35.032C104.593 35.032 105.089 35.256 105.393 35.704C105.713 36.152 105.873 36.864 105.873 37.84V41.632ZM117.283 42.232C116.691 42.888 115.995 43.216 115.195 43.216C114.699 43.216 114.331 43.112 114.091 42.904C113.851 42.68 113.691 42.32 113.611 41.824C113.195 42.304 112.763 42.656 112.315 42.88C111.867 43.104 111.371 43.216 110.827 43.216C110.027 43.216 109.371 42.864 108.859 42.16C108.363 41.456 108.115 40.544 108.115 39.424C108.115 38.08 108.467 37.016 109.171 36.232C109.875 35.432 110.835 35.032 112.051 35.032C112.611 35.032 113.123 35.16 113.587 35.416V32.752C113.587 32.528 113.483 32.416 113.275 32.416H112.459L112.363 32.176C112.683 31.888 113.091 31.664 113.587 31.504C114.083 31.328 114.571 31.24 115.051 31.24C115.259 31.24 115.427 31.288 115.555 31.384C115.683 31.464 115.747 31.584 115.747 31.744V41.632C115.747 42.112 115.899 42.352 116.203 42.352C116.507 42.352 116.803 42.232 117.091 41.992L117.283 42.232ZM112.075 42.064C112.683 42.064 113.187 41.728 113.587 41.056V35.896C113.267 35.736 112.915 35.656 112.531 35.656C111.187 35.656 110.515 36.816 110.515 39.136C110.515 40.08 110.643 40.808 110.899 41.32C111.171 41.816 111.563 42.064 112.075 42.064Z" fill="#F5F5F5"/>
<path d="M3.744 12.776C3.744 11.624 3.696 10.76 3.6 10.184C3.504 9.576 3.312 9.064 3.024 8.648C2.736 8.232 2.272 7.752 1.632 7.208L2.064 6.584H10.416L10.752 7.352C10.016 7.768 9.488 8.136 9.168 8.456C8.848 8.776 8.624 9.176 8.496 9.656C8.4 10.136 8.352 10.888 8.352 11.912V25.304C8.352 26.328 8.496 27 8.784 27.32C9.072 27.64 9.712 27.8 10.704 27.8H12.528C13.456 27.8 14.192 27.496 14.736 26.888C15.28 26.248 15.84 25.048 16.416 23.288L17.376 23.624V29.384L16.896 29.816C16.48 29.496 16.016 29.272 15.504 29.144C14.992 29.048 14.224 29 13.2 29H1.392L1.104 28.136C1.904 27.912 2.48 27.704 2.832 27.512C3.184 27.288 3.424 27 3.552 26.648C3.68 26.296 3.744 25.752 3.744 25.016V12.776ZM38.1109 21.032C38.1109 23.784 37.4069 25.88 35.9989 27.32C34.5909 28.728 32.5269 29.432 29.8069 29.432C27.1509 29.432 25.0709 28.696 23.5669 27.224C22.0629 25.752 21.3109 23.688 21.3109 21.032V12.44C21.3109 10.968 21.1829 9.912 20.9269 9.272C20.6709 8.632 20.1109 7.944 19.2469 7.208L19.5829 6.584H27.9829L28.3189 7.352C27.5829 7.736 27.0549 8.088 26.7349 8.408C26.4149 8.696 26.1909 9.08 26.0629 9.56C25.9669 10.04 25.9189 10.76 25.9189 11.72V21.464C25.9189 23.608 26.3349 25.24 27.1669 26.36C27.9989 27.448 29.2149 27.992 30.8149 27.992C32.6389 27.992 34.0469 27.432 35.0389 26.312C36.0309 25.16 36.5269 23.544 36.5269 21.464V10.568C36.5269 9.576 36.3349 8.904 35.9509 8.552C35.5989 8.168 34.8149 7.8 33.5989 7.448L33.9349 6.584H39.5029L39.9349 7.112L39.5029 7.64C38.9589 8.376 38.5749 9.128 38.3509 9.896C38.1589 10.632 38.0789 11.624 38.1109 12.872V21.032ZM66.8363 22.952C66.9003 24.232 67.0923 25.304 67.4123 26.168C67.7323 27.032 68.2443 27.816 68.9483 28.52L68.5643 29H60.2123L59.8763 28.136C60.9323 27.848 61.6043 27.56 61.8923 27.272C62.2123 26.984 62.3723 26.456 62.3723 25.688C62.3723 25.272 62.1163 21.384 61.6043 14.024L61.3163 9.848L54.8363 28.28H53.4922L47.0603 9.992L46.3883 20.936C46.2603 22.472 46.1963 23.544 46.1963 24.152C46.1963 24.984 46.2923 25.72 46.4843 26.36C46.7083 26.968 47.1083 27.688 47.6843 28.52L47.2523 29H41.9243L41.6363 28.136C42.4683 27.88 43.0603 27.656 43.4123 27.464C43.7963 27.272 44.0523 27 44.1803 26.648C44.3403 26.296 44.4523 25.752 44.5163 25.016L45.0923 15.8C45.2523 13.656 45.3323 12.248 45.3323 11.576C45.3323 10.488 45.2043 9.688 44.9483 9.176C44.7243 8.664 44.1963 8.008 43.3643 7.208L43.7003 6.584H50.7083L55.6523 21.512L60.8843 6.584H67.0763L67.5563 7.112C66.9483 8.008 66.5323 8.744 66.3083 9.32C66.1163 9.896 66.0203 10.648 66.0203 11.576C66.0203 12.184 66.0843 13.128 66.2123 14.408L66.8363 22.952ZM71.2335 28.136C71.9695 27.944 72.4975 27.752 72.8175 27.56C73.1695 27.336 73.3935 27.048 73.4895 26.696C73.6175 26.312 73.6815 25.752 73.6815 25.016V12.536C73.6815 11 73.5535 9.928 73.2975 9.32C73.0735 8.68 72.4975 7.976 71.5695 7.208L72.0015 6.584H80.1135L80.4495 7.352C79.5215 7.896 78.9295 8.408 78.6735 8.888C78.4175 9.336 78.2895 10.152 78.2895 11.336V23.144C78.2895 24.648 78.4015 25.72 78.6255 26.36C78.8815 26.968 79.4575 27.656 80.3535 28.424L79.9695 29H71.5695L71.2335 28.136ZM103.583 7.64C103.071 8.376 102.703 9.128 102.479 9.896C102.287 10.664 102.191 11.656 102.191 12.872V26.264C102.191 26.936 102.335 27.496 102.623 27.944L103.055 28.52L102.623 29H97.6313L86.9753 10.616V22.712C86.9753 23.992 87.0713 25.016 87.2633 25.784C87.4873 26.52 87.8553 27.24 88.3672 27.944L88.7993 28.52L88.3672 29H83.0873L82.7513 28.136C83.5833 27.912 84.1593 27.704 84.4793 27.512C84.8313 27.32 85.0713 27.048 85.1992 26.696C85.3273 26.344 85.3913 25.784 85.3913 25.016V12.344C85.3913 10.936 85.2633 9.912 85.0073 9.272C84.7513 8.632 84.1913 7.944 83.3273 7.208L83.7113 6.584H89.9513L100.655 25.112V10.568C100.655 9.608 100.447 8.936 100.031 8.552C99.6473 8.168 98.8313 7.8 97.5833 7.448L97.8713 6.584H103.583L104.015 7.112L103.583 7.64ZM125.195 24.68C125.515 25.576 125.867 26.296 126.251 26.84C126.635 27.352 127.227 27.912 128.027 28.52L127.595 29H118.907L118.619 28.136L119.339 27.944C119.819 27.784 120.155 27.592 120.347 27.368C120.571 27.112 120.683 26.776 120.683 26.36C120.683 26.104 120.507 25.448 120.155 24.392L119.195 21.56H111.755L111.371 22.76C110.891 24.2 110.651 25.288 110.651 26.024C110.651 26.728 110.779 27.368 111.035 27.944L111.371 28.52L110.939 29H105.659L105.322 28.136L106.043 27.944C106.811 27.72 107.387 27.416 107.771 27.032C108.155 26.616 108.523 25.896 108.875 24.872L113.771 10.76C113.995 9.96 114.107 9.4 114.107 9.08C114.107 8.376 113.595 7.88 112.571 7.592L112.043 7.448L112.379 6.584H118.907L125.195 24.68ZM118.715 20.216L115.451 10.472L112.235 20.216H118.715Z" fill="#F5F5F5"/>
</svg>
