<svg width="72" height="19" viewBox="0 0 72 19" fill="none" xmlns="http://www.w3.org/2000/svg">
<g filter="url(#filter0_d_670_69)">
<path d="M9.7063 0L11.0534 4.1459H15.4126L11.8859 6.7082L13.233 10.8541L9.7063 8.2918L6.17959 10.8541L7.52667 6.7082L3.99996 4.1459H8.35921L9.7063 0Z" fill="#F3D035"/>
</g>
<g filter="url(#filter1_d_670_69)">
<path d="M22.7063 0L24.0534 4.1459H28.4126L24.8859 6.7082L26.233 10.8541L22.7063 8.2918L19.1796 10.8541L20.5267 6.7082L17 4.1459H21.3592L22.7063 0Z" fill="#F3D035"/>
</g>
<g filter="url(#filter2_d_670_69)">
<path d="M35.7063 0L37.0534 4.1459H41.4126L37.8859 6.7082L39.233 10.8541L35.7063 8.2918L32.1796 10.8541L33.5267 6.7082L30 4.1459H34.3592L35.7063 0Z" fill="#F3D035"/>
</g>
<g filter="url(#filter3_d_670_69)">
<path d="M48.7063 0L50.0534 4.1459H54.4126L50.8859 6.7082L52.233 10.8541L48.7063 8.2918L45.1796 10.8541L46.5267 6.7082L43 4.1459H47.3592L48.7063 0Z" fill="#F3D035"/>
</g>
<g filter="url(#filter4_d_670_69)">
<path d="M61.7063 0L63.0534 4.1459H67.4126L63.8859 6.7082L65.233 10.8541L61.7063 8.2918L58.1796 10.8541L59.5267 6.7082L56 4.1459H60.3592L61.7063 0Z" fill="#F3D035"/>
</g>
<defs>
<filter id="filter0_d_670_69" x="0" y="0" width="19.4126" height="18.854" filterUnits="userSpaceOnUse" color-interpolation-filters="sRGB">
<feFlood flood-opacity="0" result="BackgroundImageFix"/>
<feColorMatrix in="SourceAlpha" type="matrix" values="0 0 0 0 0 0 0 0 0 0 0 0 0 0 0 0 0 0 127 0" result="hardAlpha"/>
<feOffset dy="4"/>
<feGaussianBlur stdDeviation="2"/>
<feComposite in2="hardAlpha" operator="out"/>
<feColorMatrix type="matrix" values="0 0 0 0 0 0 0 0 0 0 0 0 0 0 0 0 0 0 0.1 0"/>
<feBlend mode="normal" in2="BackgroundImageFix" result="effect1_dropShadow_670_69"/>
<feBlend mode="normal" in="SourceGraphic" in2="effect1_dropShadow_670_69" result="shape"/>
</filter>
<filter id="filter1_d_670_69" x="13" y="0" width="19.4126" height="18.854" filterUnits="userSpaceOnUse" color-interpolation-filters="sRGB">
<feFlood flood-opacity="0" result="BackgroundImageFix"/>
<feColorMatrix in="SourceAlpha" type="matrix" values="0 0 0 0 0 0 0 0 0 0 0 0 0 0 0 0 0 0 127 0" result="hardAlpha"/>
<feOffset dy="4"/>
<feGaussianBlur stdDeviation="2"/>
<feComposite in2="hardAlpha" operator="out"/>
<feColorMatrix type="matrix" values="0 0 0 0 0 0 0 0 0 0 0 0 0 0 0 0 0 0 0.1 0"/>
<feBlend mode="normal" in2="BackgroundImageFix" result="effect1_dropShadow_670_69"/>
<feBlend mode="normal" in="SourceGraphic" in2="effect1_dropShadow_670_69" result="shape"/>
</filter>
<filter id="filter2_d_670_69" x="26" y="0" width="19.4126" height="18.854" filterUnits="userSpaceOnUse" color-interpolation-filters="sRGB">
<feFlood flood-opacity="0" result="BackgroundImageFix"/>
<feColorMatrix in="SourceAlpha" type="matrix" values="0 0 0 0 0 0 0 0 0 0 0 0 0 0 0 0 0 0 127 0" result="hardAlpha"/>
<feOffset dy="4"/>
<feGaussianBlur stdDeviation="2"/>
<feComposite in2="hardAlpha" operator="out"/>
<feColorMatrix type="matrix" values="0 0 0 0 0 0 0 0 0 0 0 0 0 0 0 0 0 0 0.1 0"/>
<feBlend mode="normal" in2="BackgroundImageFix" result="effect1_dropShadow_670_69"/>
<feBlend mode="normal" in="SourceGraphic" in2="effect1_dropShadow_670_69" result="shape"/>
</filter>
<filter id="filter3_d_670_69" x="39" y="0" width="19.4126" height="18.854" filterUnits="userSpaceOnUse" color-interpolation-filters="sRGB">
<feFlood flood-opacity="0" result="BackgroundImageFix"/>
<feColorMatrix in="SourceAlpha" type="matrix" values="0 0 0 0 0 0 0 0 0 0 0 0 0 0 0 0 0 0 127 0" result="hardAlpha"/>
<feOffset dy="4"/>
<feGaussianBlur stdDeviation="2"/>
<feComposite in2="hardAlpha" operator="out"/>
<feColorMatrix type="matrix" values="0 0 0 0 0 0 0 0 0 0 0 0 0 0 0 0 0 0 0.1 0"/>
<feBlend mode="normal" in2="BackgroundImageFix" result="effect1_dropShadow_670_69"/>
<feBlend mode="normal" in="SourceGraphic" in2="effect1_dropShadow_670_69" result="shape"/>
</filter>
<filter id="filter4_d_670_69" x="52" y="0" width="19.4126" height="18.854" filterUnits="userSpaceOnUse" color-interpolation-filters="sRGB">
<feFlood flood-opacity="0" result="BackgroundImageFix"/>
<feColorMatrix in="SourceAlpha" type="matrix" values="0 0 0 0 0 0 0 0 0 0 0 0 0 0 0 0 0 0 127 0" result="hardAlpha"/>
<feOffset dy="4"/>
<feGaussianBlur stdDeviation="2"/>
<feComposite in2="hardAlpha" operator="out"/>
<feColorMatrix type="matrix" values="0 0 0 0 0 0 0 0 0 0 0 0 0 0 0 0 0 0 0.1 0"/>
<feBlend mode="normal" in2="BackgroundImageFix" result="effect1_dropShadow_670_69"/>
<feBlend mode="normal" in="SourceGraphic" in2="effect1_dropShadow_670_69" result="shape"/>
</filter>
</defs>
</svg>
